<?xml version="1.0" encoding="iso-8859-1"?>
<!-- Generator: Adobe Illustrator 18.1.1, SVG Export Plug-In . SVG Version: 6.00 Build 0)  -->
<svg xmlns="http://www.w3.org/2000/svg" xmlns:xlink="http://www.w3.org/1999/xlink" version="1.1" id="Capa_1" x="0px" y="0px" viewBox="0 0 26 26" style="enable-background:new 0 0 26 26;" xml:space="preserve" width="512px" height="512px">
<g>
	<path d="M25,0H1C0.449,0,0,0.449,0,1v24c0,0.551,0.449,1,1,1h24c0.551,0,1-0.449,1-1V1   C26,0.449,25.551,0,25,0z M24,6h-4V2h4V6z M24,12h-4V8h4V12z M24,18h-4v-4h4V18z M2,14h4v4H2V14z M2,8h4v4H2V8z M18,12h-4V8h4V12z    M12,12H8V8h4V12z M8,14h4v4H8V14z M14,14h4v4h-4V14z M18,6h-4V2h4V6z M12,6H8V2h4V6z M2,2h4v4H2V2z M2,20h4v4H2V20z M8,20h4v4H8   V20z M14,20h4v4h-4V20z M24,24h-4v-4h4V24z" fill="#444444"/>
</g>
<g>
</g>
<g>
</g>
<g>
</g>
<g>
</g>
<g>
</g>
<g>
</g>
<g>
</g>
<g>
</g>
<g>
</g>
<g>
</g>
<g>
</g>
<g>
</g>
<g>
</g>
<g>
</g>
<g>
</g>
</svg>
